# xmcd CD database file
#
# Track frame offsets:
#	150
#	16793
#	18695
#	38211
#	72590
#	81087
#	82328
#
# Disc length: 1228 seconds
#
# Revision: 5
# Processed by: cddbd v1.5.2PL0 Copyright (c) Steve Scherf et al.
# Submitted via: CDex 1.51
#
DISCID=5704ca07
DTITLE=Helge Schneider - Hefte raus - Klassenarbeit! [CD2]
DYEAR=2000
DGENRE=Comedy
TTITLE0=Das Huhn
TTITLE1=Udo Schade
TTITLE2=Das Huhnlied
TTITLE3=Mood Indigo
TTITLE4=Harry
TTITLE5=Komischer Hut
TTITLE6=La Paloma
EXTD=YEAR: 2000
EXTT0=
EXTT1=
EXTT2=
EXTT3=
EXTT4=
EXTT5=
EXTT6=
PLAYORDER=
